<mxfile host="Electron" agent="Mozilla/5.0 (Windows NT 10.0; Win64; x64) AppleWebKit/537.36 (KHTML, like Gecko) draw.io/26.1.1 Chrome/132.0.6834.210 Electron/34.3.3 Safari/537.36" version="26.1.1">
  <diagram id="C5RBs43oDa-KdzZeNtuy" name="Page-1">
    <mxGraphModel dx="416" dy="613" grid="1" gridSize="10" guides="1" tooltips="1" connect="1" arrows="1" fold="1" page="1" pageScale="1" pageWidth="827" pageHeight="1169" math="0" shadow="0">
      <root>
        <mxCell id="WIyWlLk6GJQsqaUBKTNV-0" />
        <mxCell id="WIyWlLk6GJQsqaUBKTNV-1" parent="WIyWlLk6GJQsqaUBKTNV-0" />
        <mxCell id="855RGL7fszjHZQp88sN6-0" value="Grouper (Concrete Class)" style="swimlane;fontStyle=1;align=center;verticalAlign=top;childLayout=stackLayout;horizontal=1;startSize=26;horizontalStack=0;resizeParent=1;resizeParentMax=0;resizeLast=0;collapsible=1;marginBottom=0;whiteSpace=wrap;html=1;fillColor=#76608a;strokeColor=#432D57;fontColor=#ffffff;strokeWidth=2;" parent="WIyWlLk6GJQsqaUBKTNV-1" vertex="1">
          <mxGeometry x="100" y="140" width="250" height="420" as="geometry">
            <mxRectangle x="130" y="170" width="100" height="30" as="alternateBounds" />
          </mxGeometry>
        </mxCell>
        <mxCell id="855RGL7fszjHZQp88sN6-1" value="- finalText : List&amp;lt;string&amp;gt;&lt;div&gt;- result : List&amp;lt;string&amp;gt;&lt;/div&gt;&lt;div&gt;- current : StringBuilder&lt;/div&gt;&lt;div&gt;- baseText : string&lt;/div&gt;&lt;div&gt;- inQuotes : boolean&lt;/div&gt;&lt;div&gt;- inBrackets : boolean&lt;/div&gt;&lt;div&gt;- quoteChar : char&lt;/div&gt;&lt;div&gt;- bracketChar : char&lt;/div&gt;&lt;div&gt;- bracketDepth[2] : num&lt;/div&gt;" style="text;strokeColor=#9673a6;fillColor=#e1d5e7;align=left;verticalAlign=top;spacingLeft=4;spacingRight=4;overflow=hidden;rotatable=0;points=[[0,0.5],[1,0.5]];portConstraint=eastwest;whiteSpace=wrap;html=1;strokeWidth=2;" parent="855RGL7fszjHZQp88sN6-0" vertex="1">
          <mxGeometry y="26" width="250" height="144" as="geometry" />
        </mxCell>
        <mxCell id="855RGL7fszjHZQp88sN6-2" value="" style="line;strokeWidth=1;fillColor=none;align=left;verticalAlign=middle;spacingTop=-1;spacingLeft=3;spacingRight=3;rotatable=0;labelPosition=right;points=[];portConstraint=eastwest;strokeColor=inherit;" parent="855RGL7fszjHZQp88sN6-0" vertex="1">
          <mxGeometry y="170" width="250" height="2" as="geometry" />
        </mxCell>
        <mxCell id="855RGL7fszjHZQp88sN6-3" value="+ Grouper(input : string)&lt;div&gt;+ methodIndex() : Array&amp;lt;string&amp;gt;&lt;br&gt;&lt;div&gt;- makeReady() : void&lt;/div&gt;&lt;div&gt;&lt;div&gt;+ setDefaults() : void&lt;/div&gt;&lt;div&gt;- setBaseText(baseText : string) : void&lt;/div&gt;&lt;/div&gt;&lt;div&gt;&lt;span style=&quot;background-color: transparent; color: light-dark(rgb(0, 0, 0), rgb(255, 255, 255));&quot;&gt;- setInBrackets(inBrackets : boolean) : void&lt;/span&gt;&lt;/div&gt;&lt;div&gt;&lt;div&gt;- setInQuotes(inQuotes : boolean) : void&lt;/div&gt;&lt;div&gt;&lt;span style=&quot;background-color: transparent; color: light-dark(rgb(0, 0, 0), rgb(255, 255, 255));&quot;&gt;- setQuoteChar(quoteChar : char) : void&lt;/span&gt;&lt;/div&gt;&lt;div&gt;&lt;span style=&quot;background-color: transparent; color: light-dark(rgb(0, 0, 0), rgb(255, 255, 255));&quot;&gt;+ mutateInQuotes() : void&lt;/span&gt;&lt;/div&gt;&lt;div&gt;+ mutateInBrackets() : void&lt;/div&gt;&lt;div&gt;+ mutateBracketDepth(c : char) : void&lt;/div&gt;&lt;div&gt;+ getFinalText() : List&amp;lt;string&amp;gt;&lt;/div&gt;&lt;/div&gt;&lt;div&gt;+ getBaseText() : string&lt;/div&gt;&lt;div&gt;- findCriteria(c : char) : void&lt;/div&gt;&lt;div&gt;- willSplitAtChar(c : char) : boolean&lt;/div&gt;&lt;div&gt;+ group() : List&amp;lt;string&amp;gt;&lt;/div&gt;&lt;/div&gt;" style="text;strokeColor=#d79b00;fillColor=#ffe6cc;align=left;verticalAlign=top;spacingLeft=4;spacingRight=4;overflow=hidden;rotatable=0;points=[[0,0.5],[1,0.5]];portConstraint=eastwest;whiteSpace=wrap;html=1;strokeWidth=2;" parent="855RGL7fszjHZQp88sN6-0" vertex="1">
          <mxGeometry y="172" width="250" height="248" as="geometry" />
        </mxCell>
        <mxCell id="Nwc5DuwQveKl4h5yeEwE-0" value="Directories (Abstract Class)" style="swimlane;fontStyle=1;align=center;verticalAlign=top;childLayout=stackLayout;horizontal=1;startSize=26;horizontalStack=0;resizeParent=1;resizeParentMax=0;resizeLast=0;collapsible=1;marginBottom=0;whiteSpace=wrap;html=1;fillColor=#a0522d;strokeColor=#6D1F00;fontColor=#ffffff;strokeWidth=2;" parent="WIyWlLk6GJQsqaUBKTNV-1" vertex="1">
          <mxGeometry x="390" y="140" width="360" height="190" as="geometry">
            <mxRectangle x="470" y="140" width="100" height="30" as="alternateBounds" />
          </mxGeometry>
        </mxCell>
        <mxCell id="Nwc5DuwQveKl4h5yeEwE-3" value="&lt;div&gt;+ static methodIndex() : Array&amp;lt;String&amp;gt;&lt;/div&gt;&lt;div&gt;&lt;span style=&quot;background-color: transparent; color: light-dark(rgb(0, 0, 0), rgb(255, 255, 255));&quot;&gt;+ static currentDir() : string&lt;/span&gt;&lt;/div&gt;&lt;div&gt;- static fileName(filePath : string) : string&lt;/div&gt;- static pathToUserInputDir() : string&lt;div&gt;- static splitPath(filePath : string) : Array&amp;lt;string&amp;gt;&lt;/div&gt;&lt;div&gt;- static buildPath(dirPath : string, fileNameOrPath : string) : string&lt;/div&gt;&lt;div&gt;+ static readPath(&lt;span style=&quot;background-color: transparent; color: light-dark(rgb(0, 0, 0), rgb(255, 255, 255));&quot;&gt;fileNameOrPath: string) : Path&lt;/span&gt;&lt;/div&gt;&lt;div&gt;+ static writePath(fileNameOrPath&lt;span style=&quot;background-color: transparent; color: light-dark(rgb(0, 0, 0), rgb(255, 255, 255));&quot;&gt;&amp;nbsp;: string) : Path&lt;/span&gt;&lt;/div&gt;&lt;div&gt;&lt;span style=&quot;background-color: transparent; color: light-dark(rgb(0, 0, 0), rgb(255, 255, 255));&quot;&gt;+ static readFile(&lt;/span&gt;&lt;span style=&quot;background-color: transparent; color: light-dark(rgb(0, 0, 0), rgb(255, 255, 255));&quot;&gt;fileNameOrPath : string) : File&lt;/span&gt;&lt;/div&gt;&lt;div&gt;&lt;span style=&quot;background-color: transparent; color: light-dark(rgb(0, 0, 0), rgb(255, 255, 255));&quot;&gt;+ static writeFile(&lt;/span&gt;&lt;span style=&quot;background-color: transparent; color: light-dark(rgb(0, 0, 0), rgb(255, 255, 255));&quot;&gt;fileNameOrPath : string) : File&lt;/span&gt;&lt;/div&gt;" style="text;strokeColor=#d79b00;fillColor=#ffe6cc;align=left;verticalAlign=top;spacingLeft=4;spacingRight=4;overflow=hidden;rotatable=0;points=[[0,0.5],[1,0.5]];portConstraint=eastwest;whiteSpace=wrap;html=1;strokeWidth=2;" parent="Nwc5DuwQveKl4h5yeEwE-0" vertex="1">
          <mxGeometry y="26" width="360" height="164" as="geometry" />
        </mxCell>
        <mxCell id="NuBtXrx_UIXL1kUx6aZ_-0" value="Dissector (Concrete Class)" style="swimlane;fontStyle=1;align=center;verticalAlign=top;childLayout=stackLayout;horizontal=1;startSize=26;horizontalStack=0;resizeParent=1;resizeParentMax=0;resizeLast=0;collapsible=1;marginBottom=0;whiteSpace=wrap;html=1;fillColor=#76608a;strokeColor=#432D57;fontColor=#ffffff;strokeWidth=2;" parent="WIyWlLk6GJQsqaUBKTNV-1" vertex="1">
          <mxGeometry x="390" y="360" width="360" height="80" as="geometry">
            <mxRectangle x="130" y="170" width="100" height="30" as="alternateBounds" />
          </mxGeometry>
        </mxCell>
        <mxCell id="NuBtXrx_UIXL1kUx6aZ_-1" value="- static" style="text;strokeColor=#9673a6;fillColor=#e1d5e7;align=left;verticalAlign=top;spacingLeft=4;spacingRight=4;overflow=hidden;rotatable=0;points=[[0,0.5],[1,0.5]];portConstraint=eastwest;whiteSpace=wrap;html=1;strokeWidth=2;" parent="NuBtXrx_UIXL1kUx6aZ_-0" vertex="1">
          <mxGeometry y="26" width="360" height="26" as="geometry" />
        </mxCell>
        <mxCell id="NuBtXrx_UIXL1kUx6aZ_-2" value="" style="line;strokeWidth=1;fillColor=none;align=left;verticalAlign=middle;spacingTop=-1;spacingLeft=3;spacingRight=3;rotatable=0;labelPosition=right;points=[];portConstraint=eastwest;strokeColor=inherit;" parent="NuBtXrx_UIXL1kUx6aZ_-0" vertex="1">
          <mxGeometry y="52" width="360" height="2" as="geometry" />
        </mxCell>
        <mxCell id="NuBtXrx_UIXL1kUx6aZ_-3" value="+ method(type): type" style="text;strokeColor=#d79b00;fillColor=#ffe6cc;align=left;verticalAlign=top;spacingLeft=4;spacingRight=4;overflow=hidden;rotatable=0;points=[[0,0.5],[1,0.5]];portConstraint=eastwest;whiteSpace=wrap;html=1;strokeWidth=2;" parent="NuBtXrx_UIXL1kUx6aZ_-0" vertex="1">
          <mxGeometry y="54" width="360" height="26" as="geometry" />
        </mxCell>
        <mxCell id="NJ3C4gdDFAe8AVc2Imgk-1" value="Statement (Concrete Class)" style="swimlane;fontStyle=1;align=center;verticalAlign=top;childLayout=stackLayout;horizontal=1;startSize=26;horizontalStack=0;resizeParent=1;resizeParentMax=0;resizeLast=0;collapsible=1;marginBottom=0;whiteSpace=wrap;html=1;fillColor=#76608a;strokeColor=#432D57;fontColor=#ffffff;strokeWidth=2;" parent="WIyWlLk6GJQsqaUBKTNV-1" vertex="1">
          <mxGeometry x="100" y="585" width="250" height="108" as="geometry">
            <mxRectangle x="130" y="170" width="100" height="30" as="alternateBounds" />
          </mxGeometry>
        </mxCell>
        <mxCell id="NJ3C4gdDFAe8AVc2Imgk-2" value="+ blockName : string&lt;div&gt;+ bodyDepth : num&lt;/div&gt;" style="text;strokeColor=#9673a6;fillColor=#e1d5e7;align=left;verticalAlign=top;spacingLeft=4;spacingRight=4;overflow=hidden;rotatable=0;points=[[0,0.5],[1,0.5]];portConstraint=eastwest;whiteSpace=wrap;html=1;strokeWidth=2;" parent="NJ3C4gdDFAe8AVc2Imgk-1" vertex="1">
          <mxGeometry y="26" width="250" height="54" as="geometry" />
        </mxCell>
        <mxCell id="NJ3C4gdDFAe8AVc2Imgk-3" value="" style="line;strokeWidth=1;fillColor=none;align=left;verticalAlign=middle;spacingTop=-1;spacingLeft=3;spacingRight=3;rotatable=0;labelPosition=right;points=[];portConstraint=eastwest;strokeColor=inherit;" parent="NJ3C4gdDFAe8AVc2Imgk-1" vertex="1">
          <mxGeometry y="80" width="250" height="2" as="geometry" />
        </mxCell>
        <mxCell id="NJ3C4gdDFAe8AVc2Imgk-4" value="+ method(type): type" style="text;strokeColor=#d79b00;fillColor=#ffe6cc;align=left;verticalAlign=top;spacingLeft=4;spacingRight=4;overflow=hidden;rotatable=0;points=[[0,0.5],[1,0.5]];portConstraint=eastwest;whiteSpace=wrap;html=1;strokeWidth=2;" parent="NJ3C4gdDFAe8AVc2Imgk-1" vertex="1">
          <mxGeometry y="82" width="250" height="26" as="geometry" />
        </mxCell>
      </root>
    </mxGraphModel>
  </diagram>
</mxfile>
